<mxfile host="app.diagrams.net" modified="2024-04-02T12:30:15.194Z" agent="Mozilla/5.0 (X11; Ubuntu; Linux x86_64; rv:124.0) Gecko/20100101 Firefox/124.0" version="24.2.1" etag="pMYHaG0KsXLNiyxGd4n5" type="github">
  <diagram name="Page-1" id="WmvjeCzFgpRHe3Yee2xI">
    <mxGraphModel>
      <root>
        <mxCell id="0" />
        <mxCell id="1" parent="0" />
      </root>
    </mxGraphModel>
  </diagram>
</mxfile>
